<svg width="806" height="274" viewBox="0 0 806 274" fill="none" xmlns="http://www.w3.org/2000/svg">
<path d="M21.5038 148.977V3.54707H80.2524C104.343 3.54707 121.487 7.61144 131.685 15.7402C142.031 23.8689 147.204 36.9488 147.204 54.9798C147.204 79.8094 137.375 95.8451 117.718 103.087L150.086 148.977H170.925V158.51H114.393L80.0307 109.073H56.0879V158.51H-0.000387004V148.977H21.5038ZM81.3608 79.1443C93.1844 79.1443 101.239 77.2229 105.525 73.3803C109.811 69.5376 111.954 63.478 111.954 55.2015C111.954 46.7772 109.737 41.0131 105.304 37.9094C100.87 34.8057 93.1105 33.2539 82.0259 33.2539H56.0879V79.1443H81.3608ZM182.577 148.977V3.54707H294.31V34.3624H217.161V66.2861H286.551V95.7712H217.161V127.917H296.749V148.977H318.253V158.51H161.073V148.977H182.577ZM471.73 148.977V158.51H308.565V148.977H356.229C344.405 142.031 335.094 132.646 328.295 120.823C321.645 108.851 318.319 95.3278 318.319 80.2527C318.319 57.4923 326.152 38.4267 341.819 23.056C357.633 7.68534 376.92 -3.58509e-06 399.68 -3.58509e-06C425.101 -3.58509e-06 446.384 9.68057 463.528 29.0417L442.024 53.4279C431.087 39.8308 417.49 33.0322 401.232 33.0322C388.226 33.0322 377.068 37.3183 367.757 45.8904C358.593 54.3147 354.012 65.7688 354.012 80.2527C354.012 94.5889 358.372 106.117 367.091 114.837C375.811 123.557 386.379 127.917 398.794 127.917C415.79 127.917 429.683 121.192 440.472 107.743L462.641 130.577C456.138 138.115 448.822 144.248 440.693 148.977H471.73ZM659.577 148.977V158.51H601.272L586.862 125.035H521.906L507.496 158.51H449.191V148.977H474.685L537.646 3.54707H571.121L633.86 148.977H659.577ZM554.495 49.6592L534.986 94.6628H573.782L554.495 49.6592ZM656.056 148.977V3.54707H714.804C738.895 3.54707 756.039 7.61144 766.237 15.7402C776.583 23.8689 781.755 36.9488 781.755 54.9798C781.755 79.8094 771.927 95.8451 752.27 103.087L784.637 148.977H805.477V158.51H748.945L714.583 109.073H690.64V158.51H634.552V148.977H656.056ZM715.913 79.1443C727.736 79.1443 735.791 77.2229 740.077 73.3803C744.363 69.5376 746.506 63.478 746.506 55.2015C746.506 46.7772 744.289 41.0131 739.856 37.9094C735.422 34.8057 727.662 33.2539 716.578 33.2539H690.64V79.1443H715.913Z" fill="white"/>
<path d="M446.118 272.041C444.5 271.179 443.314 270.1 442.559 268.806C441.912 267.512 441.588 266.218 441.588 264.924C441.588 263.307 441.966 262.066 442.721 261.204C443.152 260.664 443.583 260.341 444.015 260.233C444.554 260.233 444.716 260.503 444.5 261.042C444.177 262.983 444.931 264.816 446.765 266.542C448.706 268.375 450.485 269.561 452.103 270.1C454.044 270.64 455.823 270.909 457.441 270.909C459.058 270.909 460.622 270.693 462.132 270.262C463.749 269.939 465.259 269.561 466.661 269.13C470.866 267.512 475.018 264.331 479.116 259.586C483.214 254.841 486.988 249.503 490.439 243.572C494.968 236.024 499.39 227.45 503.703 217.853C508.017 208.147 512.6 198.712 517.452 189.545C511.09 198.065 504.296 205.613 497.071 212.191C489.954 218.769 482.729 223.676 475.396 226.911C472.268 228.313 468.871 229.392 465.205 230.146C461.646 231.009 458.034 231.44 454.367 231.44C450.701 231.44 447.142 230.955 443.691 229.985C440.348 229.014 437.329 227.504 434.633 225.455C431.182 222.652 428.756 219.147 427.354 214.941C425.952 210.628 425.251 206.206 425.251 201.677C425.251 199.197 425.413 196.771 425.736 194.398C426.168 191.918 426.599 189.599 427.03 187.443C428.756 180.433 431.559 173.532 435.442 166.738C439.324 159.944 444.015 153.528 449.515 147.489C455.014 141.342 461.161 135.95 467.955 131.313C475.827 125.921 484.13 121.662 492.865 118.534C501.708 115.407 510.874 113.843 520.364 113.843C523.06 113.843 525.648 114.005 528.128 114.329C530.716 114.652 533.035 115.191 535.084 115.946C538.535 117.132 541.015 118.75 542.525 120.799C544.035 122.848 544.789 125.112 544.789 127.593C544.789 131.583 543.118 135.573 539.775 139.563C536.108 143.876 531.633 146.896 526.349 148.621C521.173 150.239 516.482 151.047 512.276 151.047C511.306 151.047 510.389 151.047 509.526 151.047C508.771 150.939 508.017 150.832 507.262 150.724C506.183 150.616 505.644 150.239 505.644 149.592C505.644 148.837 506.291 148.567 507.585 148.783C508.34 148.891 509.149 148.998 510.012 149.106C510.874 149.106 511.737 149.106 512.6 149.106C516.59 149.106 520.795 148.297 525.217 146.68C529.746 144.954 533.79 141.827 537.349 137.298C539.182 134.926 540.098 132.337 540.098 129.534C540.098 127.593 539.559 125.759 538.481 124.034C537.51 122.309 535.785 120.907 533.305 119.828C529.638 118.103 525.217 117.348 520.041 117.564C513.031 117.779 505.968 119.289 498.85 122.093C491.841 124.789 485.101 128.347 478.631 132.769C472.161 137.19 466.229 142.205 460.838 147.812C455.446 153.312 450.916 158.973 447.25 164.797C445.525 167.6 443.745 171.213 441.912 175.634C440.187 179.948 438.677 184.639 437.383 189.707C436.197 194.668 435.603 199.52 435.603 204.265C435.603 209.765 436.682 214.672 438.839 218.985C440.995 223.299 444.824 226.21 450.323 227.72C451.725 228.151 453.504 228.367 455.661 228.367C458.357 228.367 461.323 227.936 464.558 227.073C467.901 226.318 471.352 225.078 474.91 223.353C480.734 220.549 486.503 216.774 492.218 212.03C498.042 207.177 503.541 201.785 508.718 195.854C513.894 189.923 518.369 183.938 522.143 177.899C524.3 174.556 525.972 172.884 527.158 172.884C530.393 168.14 533.79 163.88 537.349 160.106C541.015 156.331 544.897 153.366 548.995 151.209C552.446 149.484 555.843 148.621 559.186 148.621C560.695 148.621 562.151 148.783 563.553 149.106C564.092 149.214 564.254 149.538 564.038 150.077C563.823 150.508 563.499 150.67 563.068 150.562C562.097 150.239 561.073 150.077 559.995 150.077C557.406 150.077 554.603 150.993 551.583 152.827C548.564 154.66 545.544 157.41 542.525 161.076C537.78 166.684 533.628 172.884 530.069 179.678C526.619 186.364 523.383 193.428 520.364 200.868C517.452 208.201 514.325 215.588 510.982 223.029C507.747 230.362 503.919 237.479 499.497 244.381C495.507 250.528 490.978 256.027 485.91 260.88C480.841 265.733 475.126 269.399 468.764 271.88C465.097 273.282 460.891 273.982 456.147 273.982C454.205 273.982 452.318 273.821 450.485 273.497C448.76 273.174 447.304 272.688 446.118 272.041Z" fill="#EF6C2A"/>
<path d="M570.106 226.749C566.655 226.749 564.282 225.671 562.988 223.514C561.694 221.25 561.047 218.769 561.047 216.074C561.047 215.534 561.101 214.618 561.209 213.324C561.425 211.922 561.64 210.628 561.856 209.442C560.346 211.49 558.513 213.755 556.356 216.235C554.307 218.716 552.204 220.818 550.048 222.544C546.597 225.348 543.47 226.749 540.666 226.749C537.97 226.749 535.867 225.617 534.357 223.353C532.955 221.088 532.254 218.23 532.254 214.779C532.254 210.358 533.225 205.883 535.166 201.354C537.107 196.824 539.641 192.565 542.769 188.575C546.004 184.477 549.562 180.972 553.445 178.061C555.709 176.443 558.459 175.149 561.694 174.179C565.037 173.1 568.38 172.561 571.723 172.561C575.497 172.561 578.787 173.154 581.59 174.34C584.502 175.419 586.497 176.982 587.575 179.031C585.311 181.943 582.992 185.555 580.62 189.869C578.247 194.075 576.198 197.903 574.473 201.354C573.287 203.726 571.993 206.692 570.591 210.25C569.189 213.701 568.488 216.667 568.488 219.147C568.488 220.225 568.758 221.304 569.297 222.382C569.836 223.46 570.86 224 572.37 224C574.096 224 575.767 223.353 577.385 222.059C579.002 220.765 580.35 219.47 581.429 218.176C583.909 215.48 586.173 212.515 588.222 209.28C590.271 206.045 592.32 202.594 594.369 198.927C594.693 198.496 595.016 198.28 595.34 198.28C595.771 198.28 595.987 198.604 595.987 199.251C595.987 199.79 595.879 200.221 595.663 200.545C593.83 204.104 591.781 207.662 589.516 211.221C587.252 214.779 584.556 218.122 581.429 221.25C579.919 222.759 578.139 224.054 576.091 225.132C574.042 226.21 572.047 226.749 570.106 226.749ZM544.224 221.735C546.273 221.735 548.484 220.657 550.857 218.5C553.337 216.235 555.709 213.539 557.974 210.412C560.346 207.177 562.449 204.104 564.282 201.192C566.223 198.172 567.733 195.854 568.812 194.236C571.076 190.678 573.179 187.712 575.12 185.34C577.061 182.967 580.081 181.134 584.178 179.84C584.394 179.84 584.556 179.84 584.664 179.84C584.879 179.732 585.095 179.678 585.311 179.678C584.34 178.169 582.723 177.036 580.458 176.281C578.193 175.527 575.983 175.149 573.826 175.149C570.483 175.149 567.248 176.066 564.121 177.899C560.993 179.732 558.136 182.051 555.547 184.854C553.067 187.766 550.641 190.947 548.268 194.398C545.896 197.849 543.955 201.354 542.445 204.912C541.043 208.471 540.342 211.868 540.342 215.103C540.342 216.828 540.612 218.392 541.151 219.794C541.798 221.088 542.823 221.735 544.224 221.735Z" fill="#EF6C2A"/>
<path d="M624.848 222.706C623.014 224.215 621.181 225.294 619.348 225.941C617.623 226.696 616.005 227.073 614.495 227.073C611.799 227.073 609.535 226.156 607.701 224.323C605.976 222.382 605.113 219.848 605.113 216.721C605.113 214.887 605.545 212.677 606.407 210.089C607.809 206.206 609.912 202.486 612.716 198.927C615.52 195.369 618.216 191.756 620.804 188.09C622.421 185.933 623.23 183.83 623.23 181.781C623.23 180.703 622.907 179.786 622.26 179.031C621.72 178.276 620.696 177.845 619.186 177.737C618.323 177.522 617.353 177.414 616.275 177.414C615.196 177.414 614.118 177.414 613.039 177.414H608.51C607.863 177.414 607.27 177.414 606.731 177.414C606.192 177.414 605.706 177.36 605.275 177.252C604.844 179.948 603.927 182.967 602.525 186.31C601.231 189.653 599.721 192.996 597.996 196.339C596.271 199.682 594.599 202.702 592.982 205.398C592.55 206.045 592.173 206.368 591.849 206.368C591.526 206.368 591.364 206.045 591.364 205.398C591.364 204.643 591.526 204.05 591.849 203.618C594.114 199.197 596.271 194.883 598.32 190.678C600.476 186.364 601.932 181.889 602.687 177.252C600.207 175.85 598.535 173.424 597.672 169.973C597.565 169.434 597.457 168.948 597.349 168.517C597.349 167.978 597.349 167.493 597.349 167.061C597.349 165.12 597.726 163.503 598.481 162.209C599.344 160.807 600.315 160.106 601.393 160.106C602.903 160.106 604.143 161.562 605.113 164.473C605.329 165.228 605.491 166.091 605.599 167.061C605.706 167.924 605.76 168.787 605.76 169.649C605.76 170.62 605.706 171.537 605.599 172.399C605.599 173.154 605.545 173.801 605.437 174.34C606.192 174.556 607.162 174.718 608.349 174.826C609.643 174.933 611.044 174.987 612.554 174.987C614.819 174.987 617.191 174.933 619.671 174.826C622.152 174.61 624.255 174.502 625.98 174.502C628.029 174.502 629.431 174.933 630.186 175.796C630.941 176.659 631.318 177.737 631.318 179.031C631.318 180.649 630.887 182.428 630.024 184.369C629.269 186.202 628.514 187.766 627.759 189.06C626.357 191.648 625.009 193.967 623.715 196.016C622.529 197.957 621.181 200.06 619.671 202.324C617.407 205.775 615.735 208.956 614.657 211.868C613.686 214.672 613.201 217.044 613.201 218.985C613.201 222.328 614.441 224 616.922 224C618.97 224 621.613 222.544 624.848 219.632C626.897 217.799 628.784 215.642 630.509 213.162C632.342 210.574 633.96 207.986 635.362 205.398C636.872 202.702 638.112 200.491 639.082 198.766C639.298 198.442 639.514 198.28 639.729 198.28C640.161 198.28 640.376 198.712 640.376 199.574C640.376 200.221 640.215 200.814 639.891 201.354C638.058 204.697 635.955 208.363 633.583 212.353C631.21 216.343 628.298 219.794 624.848 222.706Z" fill="#EF6C2A"/>
<path d="M672.625 226.749C669.174 226.749 666.802 225.671 665.508 223.514C664.214 221.25 663.567 218.769 663.567 216.074C663.567 215.534 663.621 214.618 663.729 213.324C663.944 211.922 664.16 210.628 664.376 209.442C662.866 211.49 661.033 213.755 658.876 216.235C656.827 218.716 654.724 220.818 652.567 222.544C649.117 225.348 645.989 226.749 643.186 226.749C640.49 226.749 638.387 225.617 636.877 223.353C635.475 221.088 634.774 218.23 634.774 214.779C634.774 210.358 635.745 205.883 637.686 201.354C639.627 196.824 642.161 192.565 645.288 188.575C648.524 184.477 652.082 180.972 655.964 178.061C658.229 176.443 660.979 175.149 664.214 174.179C667.557 173.1 670.9 172.561 674.243 172.561C678.017 172.561 681.306 173.154 684.11 174.34C687.022 175.419 689.017 176.982 690.095 179.031C687.83 181.943 685.512 185.555 683.139 189.869C680.767 194.075 678.718 197.903 676.993 201.354C675.807 203.726 674.512 206.692 673.111 210.25C671.709 213.701 671.008 216.667 671.008 219.147C671.008 220.225 671.277 221.304 671.817 222.382C672.356 223.46 673.38 224 674.89 224C676.615 224 678.287 223.353 679.904 222.059C681.522 220.765 682.87 219.47 683.948 218.176C686.429 215.48 688.693 212.515 690.742 209.28C692.791 206.045 694.84 202.594 696.889 198.927C697.212 198.496 697.536 198.28 697.859 198.28C698.291 198.28 698.506 198.604 698.506 199.251C698.506 199.79 698.399 200.221 698.183 200.545C696.35 204.104 694.301 207.662 692.036 211.221C689.772 214.779 687.076 218.122 683.948 221.25C682.439 222.759 680.659 224.054 678.61 225.132C676.561 226.21 674.566 226.749 672.625 226.749ZM646.744 221.735C648.793 221.735 651.004 220.657 653.376 218.5C655.856 216.235 658.229 213.539 660.494 210.412C662.866 207.177 664.969 204.104 666.802 201.192C668.743 198.172 670.253 195.854 671.331 194.236C673.596 190.678 675.699 187.712 677.64 185.34C679.581 182.967 682.6 181.134 686.698 179.84C686.914 179.84 687.076 179.84 687.183 179.84C687.399 179.732 687.615 179.678 687.83 179.678C686.86 178.169 685.242 177.036 682.978 176.281C680.713 175.527 678.502 175.149 676.346 175.149C673.003 175.149 669.768 176.066 666.64 177.899C663.513 179.732 660.655 182.051 658.067 184.854C655.587 187.766 653.161 190.947 650.788 194.398C648.416 197.849 646.475 201.354 644.965 204.912C643.563 208.471 642.862 211.868 642.862 215.103C642.862 216.828 643.132 218.392 643.671 219.794C644.318 221.088 645.342 221.735 646.744 221.735Z" fill="#EF6C2A"/>
<path d="M690.649 269.777C688.923 270.208 687.198 270.424 685.472 270.424C682.237 270.424 679.811 269.615 678.193 267.997C676.576 266.488 675.767 264.601 675.767 262.336C675.767 260.395 676.414 258.292 677.708 256.027C679.002 253.871 680.943 251.93 683.531 250.204C686.874 247.94 689.894 246.106 692.59 244.704C695.393 243.41 698.413 242.062 701.648 240.661C704.883 239.367 708.927 237.587 713.78 235.323C715.505 231.872 717.177 227.936 718.794 223.514C720.412 219.093 721.975 214.726 723.485 210.412C725.103 206.099 726.612 202.378 728.014 199.251C727.583 199.682 726.72 200.814 725.426 202.648C724.132 204.481 723.162 205.883 722.515 206.853C720.897 209.01 718.902 211.652 716.53 214.779C714.157 217.799 711.623 220.387 708.927 222.544C705.476 225.348 702.349 226.749 699.545 226.749C696.849 226.749 694.746 225.617 693.237 223.353C691.835 221.088 691.134 218.23 691.134 214.779C691.134 212.407 691.457 210.035 692.104 207.662C695.447 195.261 702.133 185.394 712.162 178.061C714.211 176.551 716.745 175.365 719.765 174.502C722.784 173.532 725.804 173.046 728.823 173.046C733.029 173.046 736.695 173.963 739.823 175.796L740.308 175.311C742.788 171.644 745.268 168.571 747.749 166.091C750.229 163.61 753.195 161.993 756.645 161.238C752.979 165.228 749.474 170.296 746.131 176.443C742.788 182.482 739.715 188.898 736.911 195.692C734.215 202.486 731.735 208.956 729.47 215.103C727.206 221.142 725.265 226.21 723.647 230.308C729.578 227.289 734.916 223.245 739.661 218.176C744.514 213 748.611 207.393 751.954 201.354C752.709 199.844 753.518 199.089 754.381 199.089C754.596 199.089 754.704 199.251 754.704 199.574C754.704 200.006 754.489 200.599 754.057 201.354C752.116 204.804 750.013 208.201 747.749 211.544C745.592 214.779 743.112 217.799 740.308 220.603C737.935 223.191 735.24 225.563 732.22 227.72C729.308 229.877 726.073 231.764 722.515 233.382C719.927 239.42 717.177 244.974 714.265 250.042C711.353 255.111 708.01 259.37 704.236 262.821C700.462 266.272 695.933 268.591 690.649 269.777ZM702.942 221.735C705.099 221.735 707.363 220.657 709.736 218.5C712.108 216.235 714.481 213.539 716.853 210.412C719.226 207.177 721.328 204.104 723.162 201.192C725.103 198.172 726.559 195.854 727.529 194.236C729.147 191.756 730.872 189.114 732.705 186.31C734.539 183.507 736.641 180.433 739.014 177.09C736.965 176.012 734.754 175.473 732.382 175.473C729.255 175.473 726.127 176.335 723 178.061C719.98 179.786 717.231 182.051 714.75 184.854C711.084 188.844 708.01 193.158 705.53 197.795C703.05 202.324 701.325 206.314 700.354 209.765C699.815 211.706 699.545 213.701 699.545 215.75C699.545 217.368 699.761 218.769 700.192 219.956C700.731 221.142 701.648 221.735 702.942 221.735ZM689.678 266.38C693.452 265.194 696.741 263.091 699.545 260.071C702.349 257.16 704.775 253.763 706.824 249.881C708.981 246.106 710.814 242.278 712.324 238.396C708.981 240.121 704.667 241.955 699.383 243.896C694.207 245.945 689.301 248.748 684.664 252.307C682.615 253.925 681.105 255.596 680.134 257.322C679.056 259.047 678.517 260.664 678.517 262.174C678.517 263.576 679.002 264.762 679.973 265.733C680.943 266.703 682.453 267.189 684.502 267.189C685.257 267.189 686.065 267.135 686.928 267.027C687.791 266.919 688.707 266.703 689.678 266.38Z" fill="#EF6C2A"/>
<path d="M767.751 226.911C761.496 226.911 757.075 225.294 754.487 222.059C753.193 220.657 752.276 218.985 751.737 217.044C751.198 215.103 750.928 213.108 750.928 211.059C750.928 208.471 751.252 205.883 751.899 203.295C752.546 200.599 753.355 198.119 754.325 195.854C755.835 192.295 757.83 188.737 760.31 185.178C762.79 181.512 765.756 178.438 769.207 175.958C772.765 173.478 776.648 172.237 780.853 172.237C783.657 172.237 785.868 172.938 787.485 174.34C789.103 175.742 789.912 177.899 789.912 180.811C789.912 184.154 788.887 187.55 786.838 191.001C784.789 194.344 782.201 197.148 779.074 199.413C775.947 201.677 772.711 202.809 769.368 202.809C766.349 202.809 763.707 201.731 761.442 199.574C760.795 201.3 760.256 203.241 759.825 205.398C759.393 207.447 759.178 209.549 759.178 211.706C759.178 215.049 759.825 217.961 761.119 220.441C762.521 222.921 765.001 224.161 768.56 224.161C771.148 224.161 773.628 223.514 776 222.22C778.481 220.818 780.691 219.147 782.633 217.206C784.789 214.941 786.838 212.515 788.779 209.927C790.72 207.339 792.608 204.319 794.441 200.868C794.656 200.545 794.818 200.383 794.926 200.383C795.357 200.383 795.573 200.868 795.573 201.839C795.573 202.486 795.357 203.187 794.926 203.942C793.308 206.853 791.421 209.819 789.265 212.838C787.108 215.75 784.897 218.284 782.633 220.441C780.584 222.382 778.373 223.946 776 225.132C773.628 226.318 770.878 226.911 767.751 226.911ZM762.251 197.148C763.006 198.226 763.869 199.035 764.839 199.574C765.918 200.006 766.996 200.221 768.074 200.221C770.663 200.221 773.359 199.251 776.162 197.31C778.966 195.261 781.231 192.888 782.956 190.192C783.711 189.006 784.358 187.443 784.897 185.502C785.544 183.56 785.868 181.727 785.868 180.002C785.868 178.492 785.544 177.198 784.897 176.12C784.358 174.933 783.226 174.34 781.5 174.34C779.559 174.34 777.241 175.527 774.545 177.899C771.957 180.271 769.476 183.345 767.104 187.119C766.349 188.413 765.486 189.923 764.516 191.648C763.653 193.374 762.898 195.207 762.251 197.148Z" fill="#EF6C2A"/>
<path d="M513.815 106.643C513.815 106.703 513.815 106.764 512.764 110.778C511.713 114.791 509.611 122.756 507.353 131.954" stroke="white" stroke-width="2" stroke-linecap="round"/>
<path d="M509.373 101.596C509.234 102.429 509.095 103.262 508.164 108.012C507.232 112.763 505.514 121.407 504.561 127.485C503.609 133.562 503.476 136.811 503.431 140.786" stroke="white" stroke-width="2" stroke-linecap="round"/>
<path d="M515.842 96.5103C515.842 96.8424 515.842 97.1745 514.567 102.542C513.291 107.909 510.74 118.301 509.226 124.188C507.314 131.139 506.812 132.625 506.64 132.947C506.561 132.88 506.498 132.347 506.433 131.797" stroke="white" stroke-width="2" stroke-linecap="round"/>
<path d="M512.319 102.911C510.584 112.038 509.396 117.775 508.686 119.933C508.271 121.055 507.744 122.233 507.336 123.322C506.927 124.41 506.653 125.375 506.37 126.199" stroke="white" stroke-width="2" stroke-linecap="round"/>
<path d="M509.167 107.374C509.167 107.404 509.167 107.434 509.003 110.606C508.839 113.779 508.51 120.092 508.172 126.245" stroke="white" stroke-width="2" stroke-linecap="round"/>
<path d="M513.117 107.706C511.83 111.372 510.542 115.039 509.54 118.015C508.538 120.991 507.86 123.166 506.808 126.014" stroke="white" stroke-width="2" stroke-linecap="round"/>
<path d="M509.232 109.672C508.609 112.497 507.987 115.322 507.555 117.295C507.123 119.269 506.9 120.305 506.599 121.382C506.299 122.459 505.927 123.546 505.45 124.665" stroke="white" stroke-width="2" stroke-linecap="round"/>
<path d="M509.559 111.329C509.559 111.56 509.094 115.093 508.168 121.041C507.706 123.576 507.261 125.131 506.929 126.148C506.598 127.165 506.393 127.598 506.089 128.319" stroke="white" stroke-width="2" stroke-linecap="round"/>
<path d="M503.342 107.385C503.373 107.566 503.403 107.748 503.173 111.427C502.944 115.107 502.454 122.279 502.135 125.078C501.815 127.876 501.68 126.084 501.956 123.284C502.232 120.484 502.924 116.729 503.48 114.219C504.035 111.709 504.434 110.558 504.845 109.371" stroke="white" stroke-width="2" stroke-linecap="round"/>
<path d="M505.521 113.382C505.451 114.277 505.381 115.172 505.098 116.828C504.814 118.483 504.32 120.873 504.026 122.22C503.731 123.567 503.652 123.799 503.397 124.432" stroke="white" stroke-width="2" stroke-linecap="round"/>
<path d="M504.712 111.985C504.767 112.261 504.867 114.827 504.92 119.081C504.787 122.077 504.49 123.742 504.159 124.348C504.009 124.489 503.895 124.293 503.777 124.091" stroke="white" stroke-width="2" stroke-linecap="round"/>
<path d="M504.178 113.441C503.785 115.601 503.392 117.761 502.932 119.773C502.472 121.785 501.957 123.585 501.263 125.079" stroke="white" stroke-width="2" stroke-linecap="round"/>
<path d="M505.644 112.367C505.485 113.125 505.325 113.882 504.628 116.135C503.93 118.387 502.699 122.111 502.012 124.145C501.324 126.179 501.216 126.412 501.023 126.73" stroke="white" stroke-width="2" stroke-linecap="round"/>
<path d="M502.925 112.294C502.82 112.608 502.715 112.923 502.164 114.302C501.613 115.682 500.618 118.116 499.638 120.206C498.658 122.296 497.723 123.967 496.719 125.687" stroke="white" stroke-width="2" stroke-linecap="round"/>
<path d="M498.972 114.302C498.932 115.193 498.891 116.083 498.758 117.919C498.624 119.755 498.399 122.51 498.207 125.233" stroke="white" stroke-width="2" stroke-linecap="round"/>
<path d="M501.796 115.445C501.796 115.583 501.796 115.721 501.612 117.136C501.428 118.552 501.06 121.241 500.817 122.809C500.573 124.377 500.465 124.743 500.354 125.121" stroke="white" stroke-width="2" stroke-linecap="round"/>
<path d="M501.435 115.759L499.935 123.16" stroke="white" stroke-width="2" stroke-linecap="round"/>
<path d="M499.774 113.59C499.897 114.193 500.02 114.796 500.111 115.374C500.203 115.953 500.258 116.488 500.316 117.526" stroke="white" stroke-width="2" stroke-linecap="round"/>
<path d="M500.255 115.491C500.255 115.518 500.255 115.545 500.083 116.639C499.912 117.734 499.568 119.896 499.354 121.126C499.139 122.356 499.064 122.588 498.946 123.028" stroke="white" stroke-width="2" stroke-linecap="round"/>
<path d="M496.679 115.707C496.017 118.706 495.354 121.705 494.865 123.747C494.376 125.789 494.081 126.783 493.777 127.806" stroke="white" stroke-width="2" stroke-linecap="round"/>
<path d="M500.158 113.656C500.195 114.148 500.233 114.639 500.2 115.725C500.168 116.812 500.064 118.477 499.618 120.684C499.172 122.891 498.388 125.588 497.499 128.286" stroke="white" stroke-width="2" stroke-linecap="round"/>
<path d="M498.372 113.135C498.491 113.863 498.436 116.214 498.007 120.124C497.693 122.058 497.187 123.889 496.902 124.725C496.618 125.56 496.57 125.344 496.521 125.121" stroke="white" stroke-width="2" stroke-linecap="round"/>
<path d="M497.72 117.236C497.72 119.098 497.72 120.372 497.519 121.812C496.914 124.864 496.334 127.346 495.989 127.942C495.81 128.042 495.624 127.732 495.432 127.411" stroke="white" stroke-width="2" stroke-linecap="round"/>
<path d="M496.354 117.195C496.354 117.296 496.413 119.466 496.399 123.39C496.392 125.197 496.114 126.624 495.973 127.23C495.832 127.836 495.767 127.576 495.719 127.191C495.67 126.806 495.64 126.304 495.608 125.787" stroke="white" stroke-width="2" stroke-linecap="round"/>
<path d="M496.218 119.275C496.397 120.818 496.49 122.429 496.458 123.868C496.427 124.492 496.364 124.899 496.245 125.273C496.127 125.646 495.955 125.972 495.401 126.073" stroke="white" stroke-width="2" stroke-linecap="round"/>
<path d="M495.287 115.565C495.068 116.239 494.848 116.913 494.195 118.939C493.542 120.965 492.462 124.323 491.35 127.667" stroke="white" stroke-width="2" stroke-linecap="round"/>
<path d="M496.139 116.439C496.139 116.891 496.139 117.342 495.885 119.188C495.63 121.033 495.121 124.258 494.597 127.58" stroke="white" stroke-width="2" stroke-linecap="round"/>
<path d="M494.856 119.877C494.856 119.89 494.856 119.903 494.771 120.655C494.686 121.407 494.516 122.897 494.241 124.284C493.965 125.671 493.588 126.911 493.159 128.308" stroke="white" stroke-width="2" stroke-linecap="round"/>
<path d="M495.144 115.863C495.058 115.978 494.447 116.895 493.231 118.995C492.529 120.209 491.868 121.842 491.355 122.945C490.576 124.616 490.216 125.26 489.977 125.792C488.961 127.985 488.784 128.444 488.539 128.966C488.403 129.254 488.242 129.589 487.992 130.077" stroke="white" stroke-width="2" stroke-linecap="round"/>
<path d="M494.664 115.39C494.579 115.433 493.769 116.175 492.386 117.604C491.173 118.857 490.821 119.763 490.484 120.309C490.194 120.778 489.638 121.617 489.207 122.332C488.45 123.587 488.124 124.256 487.899 124.684C487.012 126.371 486.897 126.79 486.683 127.298C486.23 128.369 486.27 128.976 486.205 129.409C486.187 129.527 486.163 129.646 486.129 129.78C486.095 129.913 486.052 130.057 485.966 130.436" stroke="white" stroke-width="2" stroke-linecap="round"/>
<path d="M492.157 120.294C492.082 120.394 491.446 121.236 490.432 122.641C489.29 124.226 489.216 125.076 488.974 125.582C488.691 126.139 488.448 126.754 488.29 127.159C488.182 127.413 488.019 127.767 487.852 128.132" stroke="white" stroke-width="2" stroke-linecap="round"/>
<path d="M485.109 130.513C485.092 130.389 485.109 130.073 485.176 129.91C485.247 129.737 485.289 129.564 485.317 129.401C485.332 129.319 485.366 129.241 485.37 129.196C485.384 129.048 485.095 129.342 484.921 129.505C484.757 129.658 484.67 129.8 484.58 129.933C484.488 130.069 484.405 130.164 484.35 130.194C484.326 130.206 484.3 130.157 484.297 130.122C484.281 129.962 484.491 129.837 484.702 129.619C484.838 129.479 484.984 129.348 485.124 129.199C485.184 129.136 485.361 128.901 485.614 128.58C485.747 128.411 485.823 128.323 486.712 127.102C487.569 125.93 489.25 123.635 490.19 122.381C491.129 121.128 491.277 120.986 491.509 120.782" stroke="white" stroke-width="2" stroke-linecap="round"/>
<path d="M490.737 117.925C490.624 118.025 490.178 118.527 489.573 119.238C489.221 119.651 489.114 119.936 488.825 120.428C488.607 120.797 488.252 121.412 488.061 121.751C487.802 122.209 487.769 122.663 487.674 123.258C487.623 123.578 487.543 123.888 487.441 124.323C487.261 125.086 487.142 125.571 487.036 125.941C486.942 126.267 486.826 126.614 486.721 126.868C486.666 127.003 486.497 127.457 486.124 128.397C485.915 128.926 485.665 129.558 485.477 129.982C485.288 130.406 485.168 130.604 485.044 130.807" stroke="white" stroke-width="2" stroke-linecap="round"/>
<path d="M484.749 130.26C484.79 130.133 484.927 129.796 485.269 129.258C485.6 128.738 485.81 128.364 485.937 128.139C486.048 127.943 486.14 127.806 486.279 127.594C486.368 127.458 486.437 127.326 486.587 127.072C486.91 126.527 487.187 126.058 487.296 125.829C487.35 125.717 487.407 125.619 487.536 125.336C487.665 125.053 487.867 124.589 488.082 124.089C488.298 123.59 488.522 123.068 488.653 122.75C488.783 122.432 488.815 122.334 488.847 122.232" stroke="white" stroke-width="2" stroke-linecap="round"/>
<path d="M485.013 129.754C485.013 129.748 485.216 129.358 485.569 128.713C485.783 128.322 485.995 128.032 486.158 127.642C486.458 126.928 486.375 126.606 486.703 126.064C486.899 125.742 486.99 125.392 487.097 125.157C487.288 124.737 487.434 124.27 487.574 123.927C487.661 123.752 487.785 123.505 487.948 123.232C488.015 123.127 488.052 123.093 488.09 123.057" stroke="white" stroke-width="2" stroke-linecap="round"/>
<path d="M487.742 119.495L486.63 126.117L484.13 130.447L483.07 130.283L487.742 119.495Z" fill="white"/>
<path d="M508.226 121.198C508.226 121.177 508.226 121.156 514.636 119.331C521.046 117.505 533.867 113.875 547.076 110.072" stroke="white" stroke-width="2" stroke-linecap="round"/>
<path d="M509.972 118.498C510.602 118.383 511.233 118.268 521.463 116.471C531.693 114.673 551.503 111.195 571.913 107.613" stroke="white" stroke-width="2" stroke-linecap="round"/>
<path d="M509.498 115.201C515.993 114.77 522.489 114.339 530.371 113.855C538.253 113.372 547.324 112.85 556.671 112.312" stroke="white" stroke-width="2" stroke-linecap="round"/>
<path d="M511.562 115.696C511.582 115.696 511.603 115.696 512.686 115.719C513.77 115.743 515.916 115.79 521.663 115.383C527.409 114.975 536.691 114.112 546.255 113.222" stroke="white" stroke-width="2" stroke-linecap="round"/>
<path d="M508.822 117.46C508.947 117.439 509.071 117.418 516.15 117.093C523.23 116.768 537.26 116.14 551.715 115.493" stroke="white" stroke-width="2" stroke-linecap="round"/>
<path d="M518.334 119.977C519.173 119.857 520.012 119.737 528.884 119.331C537.755 118.925 554.635 118.236 564.273 117.942C573.911 117.647 575.797 117.768 577.74 117.893" stroke="white" stroke-width="2" stroke-linecap="round"/>
<path d="M521.604 118.004C525.396 118.172 529.188 118.34 537.285 118.077C545.383 117.815 557.671 117.116 570.332 116.397" stroke="white" stroke-width="2" stroke-linecap="round"/>
<path d="M533.042 121.058C533.534 121.058 534.026 121.058 539.988 120.905C545.951 120.753 557.369 120.448 569.133 120.134" stroke="white" stroke-width="2" stroke-linecap="round"/>
<path d="M531.673 121.211C531.693 121.211 531.714 121.211 538.564 121.054C545.413 120.898 559.091 120.584 573.183 120.261" stroke="white" stroke-width="2" stroke-linecap="round"/>
<path d="M530.116 121.908C530.157 121.908 530.199 121.908 537.143 121.904C544.088 121.9 557.935 121.891 572.202 121.883" stroke="white" stroke-width="2" stroke-linecap="round"/>
<path d="M535.514 122.675C535.658 122.675 535.802 122.675 541.882 122.096C547.961 121.516 559.971 120.356 572.345 119.161" stroke="white" stroke-width="2" stroke-linecap="round"/>
<path d="M533.953 122.61C533.974 122.61 533.994 122.61 541.47 122.656C548.945 122.702 563.874 122.794 579.256 122.889" stroke="white" stroke-width="2" stroke-linecap="round"/>
<path d="M534.125 119.4C534.541 119.426 534.956 119.453 538.475 119.349C541.994 119.245 548.604 119.01 552.359 118.83C556.114 118.651 556.814 118.534 557.805 118.448C558.796 118.363 560.056 118.312 561.355 118.26" stroke="white" stroke-width="2" stroke-linecap="round"/>
<path d="M536.533 122.742C536.574 122.7 536.615 122.658 544.426 121.884C552.237 121.111 567.817 119.606 583.869 118.055" stroke="white" stroke-width="2" stroke-linecap="round"/>
<path d="M535.758 123.141C537.07 123.02 538.383 122.9 546.247 122.31C554.11 121.72 568.486 120.664 583.296 119.576" stroke="white" stroke-width="2" stroke-linecap="round"/>
<path d="M536.342 123.103C537.045 123.103 537.748 123.103 545.225 123.109C552.701 123.116 566.93 123.128 575.623 122.983C584.315 122.837 587.039 122.534 589.846 122.221" stroke="white" stroke-width="2" stroke-linecap="round"/>
<path d="M535.874 123.514C536.5 123.545 537.126 123.576 543.852 123.178C550.578 122.78 563.386 121.952 576.582 121.099" stroke="white" stroke-width="2" stroke-linecap="round"/>
<path d="M535.31 123.634C542.772 123.816 550.234 123.998 556.698 124.05C563.163 124.102 568.405 124.018 573.805 123.931" stroke="white" stroke-width="2" stroke-linecap="round"/>
<path d="M536.647 124.001C536.682 124.001 536.717 124.001 544.582 123.911C552.447 123.82 568.141 123.639 584.311 123.452" stroke="white" stroke-width="2" stroke-linecap="round"/>
<path d="M483.312 132.975C483.402 132.742 483.491 132.509 485.232 129.84C486.972 127.172 490.362 122.075 493.719 116.33C497.075 110.585 500.296 104.346 502.483 100.48C504.669 96.6134 505.725 95.3084 506.812 93.9639" stroke="white" stroke-width="2" stroke-linecap="round"/>
<path d="M490.035 118.278L489.452 118.585" stroke="white" stroke-width="2" stroke-linecap="round"/>
<path d="M489.33 117.722C487.387 122.688 485.657 127.528 484.156 131.603C481.401 136.7 480.433 138.958 480.084 140.294C479.95 140.981 479.904 141.687 479.856 142.415" stroke="white" stroke-width="2" stroke-linecap="round"/>
<path d="M488.856 119.486C488.772 119.618 488.687 119.75 488.422 120.554C488.157 121.357 487.713 122.828 487.191 126.07C486.67 129.312 486.083 134.281 485.479 139.4" stroke="white" stroke-width="2" stroke-linecap="round"/>
<path d="M488.277 119.955C488.277 119.989 488.067 120.517 487.187 123.578C486.458 126.113 485.396 130.705 484.771 133.502C484.146 136.299 484.052 137.179 484.003 137.809C483.955 138.439 483.955 138.793 483.955 139.157" stroke="white" stroke-width="2" stroke-linecap="round"/>
<path d="M488.563 120.866C488.3 121.056 487.652 121.969 486.775 124.948C485.149 128.574 482.966 133.353 482.769 134.732C482.702 135.46 482.702 136.248 482.702 137.06" stroke="white" stroke-width="2" stroke-linecap="round"/>
<path d="M483.402 131.933C483.505 131.601 483.921 130.578 484.39 129.58C484.816 128.673 485.293 127.718 485.649 126.613C485.963 125.64 486.525 124.804 486.934 123.884C487.116 123.426 487.307 122.982 487.532 122.516C487.654 122.259 487.792 121.962 487.933 121.656" stroke="white" stroke-width="2" stroke-linecap="round"/>
<path d="M487.915 121.182C487.173 123.137 486.431 125.092 485.249 128.072C484.066 131.051 482.465 134.997 481.465 137.701C480.465 140.405 480.113 141.748 479.886 142.793C479.66 143.838 479.568 144.545 479.474 145.273" stroke="white" stroke-width="2" stroke-linecap="round"/>
<path d="M487.588 122.123C487.479 122.267 487.371 122.411 487.186 122.757C487.001 123.102 486.744 123.644 486.073 125.575C485.402 127.506 484.325 130.811 483.11 134.678" stroke="white" stroke-width="2" stroke-linecap="round"/>
<path d="M487.877 120.877C487.807 121.016 486.578 125.151 484.521 131.87C483.157 135.652 482.579 137.058 482.485 137.679C482.453 138.052 482.453 138.545 482.453 139.053" stroke="white" stroke-width="2" stroke-linecap="round"/>
</svg>
